<?xml version="1.0" encoding="UTF-8"?>
<svg id="Layer_2" data-name="Layer 2" xmlns="http://www.w3.org/2000/svg" xmlns:xlink="http://www.w3.org/1999/xlink" viewBox="0 0 638.03 354.11">
  <defs>
    <style>
      .cls-1 {
        fill: url(#linear-gradient);
      }

      .cls-1, .cls-2, .cls-3, .cls-4, .cls-5, .cls-6, .cls-7 {
        stroke-width: 0px;
      }

      .cls-2 {
        fill: url(#linear-gradient-6);
      }

      .cls-3 {
        fill: url(#linear-gradient-5);
      }

      .cls-4 {
        fill: url(#linear-gradient-2);
      }

      .cls-5 {
        fill: url(#linear-gradient-3);
      }

      .cls-6 {
        fill: #fff;
      }

      .cls-7 {
        fill: url(#linear-gradient-4);
      }
    </style>
    <linearGradient id="linear-gradient" x1="68.82" y1="250.36" x2="513.51" y2="-.16" gradientUnits="userSpaceOnUse">
      <stop offset="0" stop-color="#b3b2b3"/>
      <stop offset=".39" stop-color="#cbcbca"/>
      <stop offset=".69" stop-color="#f2f2f2"/>
      <stop offset="1" stop-color="#b3b2b3"/>
    </linearGradient>
    <linearGradient id="linear-gradient-2" x1="68.82" y1="250.36" x2="513.51" y2="-.16" xlink:href="#linear-gradient"/>
    <linearGradient id="linear-gradient-3" x1="185.34" y1="302.86" x2="554.23" y2="66.76" xlink:href="#linear-gradient"/>
    <linearGradient id="linear-gradient-4" x1="65.23" y1="243.97" x2="509.92" y2="-6.54" xlink:href="#linear-gradient"/>
    <linearGradient id="linear-gradient-5" x1="80.48" y1="271.05" x2="525.17" y2="20.53" xlink:href="#linear-gradient"/>
    <linearGradient id="linear-gradient-6" x1="66.65" y1="246.5" x2="511.34" y2="-4.01" xlink:href="#linear-gradient"/>
  </defs>
  <g id="Layer_1-2" data-name="Layer 1">
    <g>
      <g>
        <path class="cls-1" d="M447.88,64.85h-17.99v104.14c0,1.65-1.36,3-3.02,3h-216.9c-1.65,0-3.01-1.35-3.01-3V50.51c0-1.67,1.36-3.01,3.01-3.01h199.12v-20.53h-199.12c-13,0-23.54,10.53-23.54,23.54v118.48c0,13,10.55,23.53,23.54,23.53h216.9c13,0,23.54-10.53,23.54-23.53v-104.55c-.8.27-1.66.41-2.54.41Z"/>
        <path class="cls-4" d="M365.84,99.44h-37.1v-37.1c0-1.32-1.07-2.39-2.39-2.39h-15.83c-1.32,0-2.39,1.07-2.39,2.39v37.1h-37.1c-1.32,0-2.39,1.07-2.39,2.39v15.83c0,1.32,1.07,2.39,2.39,2.39h37.1v37.1c0,1.32,1.07,2.39,2.39,2.39h15.83c1.32,0,2.39-1.07,2.39-2.39v-37.1h37.1c1.32,0,2.39-1.07,2.39-2.39v-15.83c0-1.32-1.07-2.39-2.39-2.39Z"/>
        <path class="cls-5" d="M438.19,234.23h-236.38c-1.58,0-3.09-.65-4.18-1.8l-13.91-14.67c-3.48-3.67-.88-9.73,4.18-9.73h262.23c4.85,0,7.53,5.63,4.47,9.4l-11.94,14.67c-1.09,1.34-2.74,2.13-4.47,2.13Z"/>
        <rect class="cls-7" x="424.73" y="17.08" width="31.17" height="31.17" rx="5.35" ry="5.35"/>
        <rect class="cls-3" x="467.05" y="39.35" width="17.81" height="17.81" rx="3.06" ry="3.06"/>
        <rect class="cls-2" x="470.01" width="24.65" height="24.65" rx="4.23" ry="4.23"/>
      </g>
      <g>
        <path class="cls-6" d="M65.45,321.16c-.18,16.48-10.29,32.95-32.68,32.95S0,338,0,321.25s10.74-33.59,32.77-33.59,32.86,16.84,32.68,33.5ZM11.83,321.43c.27,10.47,5.92,21.67,20.94,21.67s20.66-11.29,20.85-21.76c.18-10.74-5.83-22.76-20.85-22.76s-21.21,12.11-20.94,22.85Z"/>
        <path class="cls-6" d="M87.03,299.86h-20.21v-10.92h52.44v10.92h-20.21v52.8h-12.02v-52.8Z"/>
        <path class="cls-6" d="M169.96,352.75v-25.76h-31.32v25.76h-12.02v-63.72h12.02v26.85h31.32v-26.85h11.93v63.72h-11.93Z"/>
        <path class="cls-6" d="M240.69,352.66h-47.7v-63.72h47.7v11.65h-35.78v14.66h34.5v11.2h-34.5v14.38h35.78v11.83Z"/>
        <path class="cls-6" d="M306.5,352.66h-14.29l-18.57-21.3h-11.56v21.3h-12.02v-63.81c10.1,0,20.21.09,30.31.09,15.02.09,22.94,10.1,22.94,21.12,0,8.74-4.01,17.57-16.11,20.03l19.3,21.76v.82ZM262.08,300.13v20.39h18.3c7.65,0,10.92-5.1,10.92-10.2s-3.37-10.2-10.92-10.2h-18.3Z"/>
        <path class="cls-6" d="M368.67,319.89v23.76c-3.28,3.28-6.95,5.77-11.01,7.46-4.07,1.7-8.41,2.55-13.02,2.55-6.37,0-12.03-1.38-16.98-4.14-4.95-2.76-8.8-6.63-11.56-11.61-2.76-4.98-4.14-10.68-4.14-17.11s1.38-12.14,4.14-17.11c2.76-4.98,6.63-8.84,11.61-11.61,4.98-2.76,10.68-4.14,17.11-4.14,8.74,0,16.32,3.16,22.76,9.47l-2.64,2.82c-2.73-2.73-5.81-4.82-9.24-6.28-3.43-1.46-7.05-2.18-10.88-2.18-5.64,0-10.65,1.21-15.02,3.64-4.37,2.43-7.77,5.84-10.2,10.24-2.43,4.4-3.64,9.45-3.64,15.16s1.21,10.67,3.64,15.07c2.43,4.4,5.81,7.83,10.15,10.29,4.34,2.46,9.3,3.69,14.88,3.69,3.82,0,7.51-.7,11.06-2.09,3.55-1.4,6.57-3.34,9.06-5.83v-18.21h-22.94v-3.82h26.85Z"/>
        <path class="cls-6" d="M395.07,350.47c-3.76-2.12-6.69-5.11-8.78-8.97-2.09-3.85-3.14-8.27-3.14-13.24v-39.33h4.01v39.33c0,4.25.88,8,2.64,11.24,1.76,3.25,4.22,5.78,7.37,7.6,3.15,1.82,6.77,2.73,10.83,2.73s7.68-.91,10.83-2.73c3.15-1.82,5.61-4.35,7.37-7.6,1.76-3.25,2.64-6.99,2.64-11.24v-39.33h4.01v39.33c0,4.98-1.05,9.39-3.14,13.24-2.09,3.85-5.02,6.84-8.78,8.97-3.76,2.12-8.07,3.19-12.93,3.19s-9.16-1.06-12.93-3.19Z"/>
        <path class="cls-6" d="M498.21,288.94l-25.12,38.32v25.4h-4.01v-25.4l-25.03-38.32h4.73l22.3,34.41,22.3-34.41h4.82Z"/>
        <path class="cls-6" d="M514.5,350.43c-4.67-2.15-8.31-5.02-10.92-8.6l2.73-2.73c2.06,3.16,5.25,5.73,9.56,7.74,4.31,2,8.8,3,13.47,3,6.43,0,11.52-1.2,15.25-3.6,3.73-2.4,5.6-5.66,5.6-9.79,0-2.61-.65-4.76-1.96-6.46-1.31-1.7-3.49-3.15-6.55-4.37-3.07-1.21-7.45-2.37-13.15-3.46-5.83-1.15-10.42-2.49-13.79-4.01-3.37-1.52-5.81-3.37-7.33-5.55-1.52-2.18-2.28-4.92-2.28-8.19s.99-6.17,2.96-8.69c1.97-2.52,4.76-4.46,8.37-5.83,3.61-1.37,7.78-2.05,12.52-2.05s8.86.77,12.74,2.32c3.88,1.55,7.16,3.81,9.83,6.78l-2.55,2.82c-2.31-2.61-5.2-4.63-8.69-6.05-3.49-1.43-7.3-2.14-11.42-2.14-6.01,0-10.82,1.17-14.43,3.5-3.61,2.34-5.42,5.45-5.42,9.33,0,2.55.64,4.66,1.91,6.33,1.27,1.67,3.37,3.09,6.28,4.28,2.91,1.18,6.95,2.29,12.11,3.32,6.37,1.27,11.33,2.67,14.88,4.19,3.55,1.52,6.1,3.37,7.65,5.55,1.55,2.18,2.32,4.95,2.32,8.28,0,5.34-2.23,9.56-6.69,12.65-4.46,3.09-10.51,4.64-18.16,4.64-5.22,0-10.17-1.08-14.84-3.23Z"/>
        <path class="cls-6" d="M563.2,352.66v-63.72h11.93v63.72h-11.93Z"/>
        <path class="cls-6" d="M605.8,299.86h-20.21v-10.92h52.44v10.92h-20.21v52.8h-12.02v-52.8Z"/>
      </g>
    </g>
  </g>
</svg>